<svg width="24" height="24" viewBox="0 0 24 24" fill="none" xmlns="http://www.w3.org/2000/svg">
<path fill-rule="evenodd" clip-rule="evenodd" d="M13.4635 16.7196C12.7564 17.5682 12.8711 18.8293 13.7196 19.5365C14.5682 20.2436 15.8293 20.1289 16.5364 19.2804L21.528 13.2905C21.8225 12.9422 22 12.4918 22 12C22 11.5075 21.822 11.0565 21.5268 10.708L16.5364 4.71964C15.8293 3.87109 14.5682 3.75644 13.7196 4.46357C12.8711 5.1707 12.7564 6.43183 13.4635 7.28038L15.7299 10H4C2.89543 10 2 10.8954 2 12C2 13.1046 2.89543 14 4 14H15.7299L13.4635 16.7196Z" fill="white" fill-opacity="0.9"/>
</svg>
