<svg width="24" height="24" viewBox="0 0 24 24" fill="none" xmlns="http://www.w3.org/2000/svg">
<g clip-path="url(#clip0_56_191)">
<path fill-rule="evenodd" clip-rule="evenodd" d="M19.0711 4.92894C19.8522 5.70999 19.8522 6.97632 19.0711 7.75737L17.1167 9.71176L19.5543 17.0244C19.9036 18.0723 19.3373 19.2049 18.2894 19.5542C17.2415 19.9035 16.1088 19.3372 15.7596 18.2893L13.9545 12.874L10.5858 16.2427L11.1515 20.2024C11.3077 21.2959 10.5479 22.309 9.45447 22.4652C8.361 22.6214 7.34794 21.8616 7.19173 20.7681L6.69675 17.3033L3.23193 16.8083C2.13846 16.6521 1.37866 15.6391 1.53487 14.5456C1.69108 13.4521 2.70415 12.6923 3.79762 12.8485L7.75742 13.4142L11.126 10.0456L5.71076 8.24053C4.66287 7.89124 4.09655 6.7586 4.44584 5.71071C4.79514 4.66282 5.92778 4.0965 6.97567 4.4458L14.2883 6.88334L16.2427 4.92894C17.0237 4.1479 18.2901 4.1479 19.0711 4.92894Z" fill="white" fill-opacity="0.9"/>
</g>
<defs>
<clipPath id="clip0_56_191">
<rect width="24" height="24" fill="white"/>
</clipPath>
</defs>
</svg>
