<svg width="24" height="24" viewBox="0 0 24 24" fill="none" xmlns="http://www.w3.org/2000/svg">
<path fill-rule="evenodd" clip-rule="evenodd" d="M4.92893 16.2427C4.14788 17.0237 4.14788 18.29 4.92893 19.0711C5.70997 19.8521 6.9763 19.8521 7.75735 19.0711L12 14.8284L16.2426 19.0711C17.0237 19.8521 18.29 19.8521 19.0711 19.0711C19.8521 18.29 19.8521 17.0237 19.0711 16.2427L14.8284 12L19.0711 7.75737C19.8521 6.97632 19.8521 5.70999 19.0711 4.92894C18.29 4.14789 17.0237 4.14789 16.2426 4.92894L12 9.17159L7.75736 4.92896C6.97631 4.14791 5.70998 4.14791 4.92893 4.92896C4.14788 5.71001 4.14788 6.97634 4.92893 7.75738L9.17156 12L4.92893 16.2427Z" fill="white" fill-opacity="0.9"/>
</svg>
