<svg width="34" height="255" viewBox="0 0 34 255" fill="none" xmlns="http://www.w3.org/2000/svg">
<path d="M17 20.5V220.5" stroke="#2D303A" stroke-linecap="round" stroke-linejoin="round" stroke-dasharray="5 5"/>
<circle cx="16.5" cy="7.5" r="6" fill="#1D2026" stroke="#2D303A" stroke-width="3"/>
<path fill-rule="evenodd" clip-rule="evenodd" d="M16.9708 247.971C15.8662 247.971 14.9708 247.075 14.9708 245.971V243.207L8.07636 239.759C7.0884 239.265 6.68795 238.064 7.18193 237.076C7.67591 236.088 8.87725 235.688 9.86521 236.182L14.9708 238.735V233.971L11.7708 231.571C10.8871 230.908 10.7081 229.654 11.3708 228.771C12.0335 227.887 13.2871 227.708 14.1708 228.371L16.9708 230.471L19.7708 228.371C20.6545 227.708 21.9081 227.887 22.5708 228.771C23.2335 229.654 23.0545 230.908 22.1708 231.571L18.9708 233.971V238.735L24.0764 236.182C25.0643 235.688 26.2657 236.088 26.7596 237.076C27.2536 238.064 26.8532 239.265 25.8652 239.759L18.9708 243.207V245.971C18.9708 247.075 18.0754 247.971 16.9708 247.971Z" fill="#2D303A"/>
</svg>
