<svg width="24" height="24" viewBox="0 0 24 24" fill="none" xmlns="http://www.w3.org/2000/svg">
<path fill-rule="evenodd" clip-rule="evenodd" d="M11 7C10.4477 7 10 7.44772 10 8V9H14V8C14 7.44772 13.5523 7 13 7H11ZM6 8V9.20485C4.83481 9.69905 4 11.0325 4 12.6V17.4C4 19.3882 5.34315 21 7 21H17C18.6569 21 20 19.3882 20 17.4V12.6C20 11.0325 19.1652 9.69905 18 9.20485V8C18 5.23858 15.7614 3 13 3H11C8.23858 3 6 5.23858 6 8ZM12 17C13.1046 17 14 16.1046 14 15C14 13.8954 13.1046 13 12 13C10.8954 13 10 13.8954 10 15C10 16.1046 10.8954 17 12 17Z" fill="white" fill-opacity="0.9"/>
</svg>
