<svg width="24" height="24" viewBox="0 0 24 24" fill="none" xmlns="http://www.w3.org/2000/svg">
<path fill-rule="evenodd" clip-rule="evenodd" d="M5 4C6.10457 4 7 4.89543 7 6V9H9H11V6C11 4.89543 11.8954 4 13 4C14.1046 4 15 4.89543 15 6V11C15 12.1046 14.1046 13 13 13H11V18C11 19.1046 10.1046 20 9 20C7.89543 20 7 19.1046 7 18V13H5C3.89543 13 3 12.1046 3 11V6C3 4.89543 3.89543 4 5 4ZM21 6C21 4.89543 20.1046 4 19 4C17.8954 4 17 4.89543 17 6L17 18C17 19.1046 17.8954 20 19 20C20.1046 20 21 19.1046 21 18V6Z" fill="white" fill-opacity="0.9"/>
</svg>
