<svg width="24" height="24" viewBox="0 0 24 24" fill="none" xmlns="http://www.w3.org/2000/svg">
<path fill-rule="evenodd" clip-rule="evenodd" d="M7 10C7 8.34315 8.34315 7 10 7C11.6569 7 13 8.34315 13 10C13 11.6569 11.6569 13 10 13C8.34315 13 7 11.6569 7 10ZM10 3C6.13401 3 3 6.13401 3 10C3 13.866 6.13401 17 10 17C11.2055 17 12.3399 16.6953 13.3302 16.1586L16.6569 19.4853C17.4379 20.2663 18.7042 20.2663 19.4853 19.4853C20.2663 18.7042 20.2663 17.4379 19.4853 16.6569L16.1586 13.3302C16.6953 12.3399 17 11.2055 17 10C17 6.13401 13.866 3 10 3Z" fill="white" fill-opacity="0.9"/>
</svg>
