<svg width="24" height="24" viewBox="0 0 24 24" fill="none" xmlns="http://www.w3.org/2000/svg">
<path fill-rule="evenodd" clip-rule="evenodd" d="M4 10C4 8.89543 4.89543 8 6 8C7.10457 8 8 8.89543 8 10V14C8 15.1046 7.10457 16 6 16C4.89543 16 4 15.1046 4 14V10ZM10 10C10 8.89543 10.8954 8 12 8C13.1046 8 14 8.89543 14 10V14C14 15.1046 13.1046 16 12 16C10.8954 16 10 15.1046 10 14V10ZM18 8C16.8954 8 16 8.89543 16 10V14C16 15.1046 16.8954 16 18 16C19.1046 16 20 15.1046 20 14V10C20 8.89543 19.1046 8 18 8Z" fill="white" fill-opacity="0.9"/>
</svg>
