<svg width="24" height="24" viewBox="0 0 24 24" fill="none" xmlns="http://www.w3.org/2000/svg">
<path fill-rule="evenodd" clip-rule="evenodd" d="M17.6 8.19989C16.9373 9.08354 15.6837 9.26263 14.8 8.59989L14 7.99988V11C14 12.1046 13.1046 13 12 13C10.8954 13 10 12.1046 10 11V7.99989L9.2 8.59989C8.31635 9.26263 7.06275 9.08354 6.4 8.19989C5.73726 7.31623 5.91635 6.06263 6.8 5.39989L10.8 2.39989C11.5111 1.86655 12.4889 1.86655 13.2 2.39989L17.2 5.39989C18.0837 6.06263 18.2627 7.31623 17.6 8.19989ZM6 12C6 10.8954 5.10457 10 4 10C2.89543 10 2 10.8954 2 12V20C2 21.1046 2.89543 22 4 22H20C21.1046 22 22 21.1046 22 20V12C22 10.8954 21.1046 10 20 10C18.8954 10 18 10.8954 18 12V18H6V12Z" fill="white" fill-opacity="0.9"/>
</svg>
