<svg width="24" height="24" viewBox="0 0 24 24" fill="none" xmlns="http://www.w3.org/2000/svg">
<path d="M2 8C2 6.34315 3.34315 5 5 5H10.8636C11.579 5 12.2526 5.33681 12.6818 5.90909C13.5909 7.12121 15.4091 7.12121 16.3182 5.90909C16.7474 5.33681 17.421 5 18.1364 5H19C20.6569 5 22 6.34315 22 8V16C22 17.6569 20.6569 19 19 19H18.1364C17.421 19 16.7474 18.6632 16.3182 18.0909C15.4091 16.8788 13.5909 16.8788 12.6818 18.0909C12.2526 18.6632 11.579 19 10.8636 19H5C3.34315 19 2 17.6569 2 16V8Z" fill="white" fill-opacity="0.9"/>
</svg>
